name ./resultDataOpenSim/trcMotMarkerGrf/sub06/grf-02-05.mot
datacolumns 19
datarows 27
range 0.48400000 0.58800000
endheader

                time	     ground_force_vx	     ground_force_vy	     ground_force_vz	     ground_force_px	     ground_force_py	     ground_force_pz	   l_ground_force_vx	   l_ground_force_vy	   l_ground_force_vz	   l_ground_force_px	   l_ground_force_py	   l_ground_force_pz	     ground_torque_x	     ground_torque_y	     ground_torque_z	   l_ground_torque_x	   l_ground_torque_y	   l_ground_torque_z	
          0.48400000	        110.14120452	        679.72832533	        -40.94785483	         -0.79651180	          0.00000000	          0.07823636	          0.00000000	          0.00000000	          0.00000000	          0.00000000	          0.00000000	          0.00000000	          0.00000000	          1.51831918	          0.00000000	          0.00000000	          0.00000000	          0.00000000	
          0.48800000	        114.71861544	        697.41952508	        -40.45926681	         -0.79520499	          0.00000000	          0.07796394	          0.00000000	          0.00000000	          0.00000000	          0.00000000	          0.00000000	          0.00000000	          0.00000000	          1.53461123	          0.00000000	          0.00000000	          0.00000000	          0.00000000	
          0.49200000	        119.48369191	        714.38197299	        -39.59408906	         -0.79403218	          0.00000000	          0.07763591	          0.00000000	          0.00000000	          0.00000000	          0.00000000	          0.00000000	          0.00000000	          0.00000000	          1.60835066	          0.00000000	          0.00000000	          0.00000000	          0.00000000	
          0.49600000	        124.60226331	        730.35391914	        -38.52189156	         -0.79299581	          0.00000000	          0.07727040	          0.00000000	          0.00000000	          0.00000000	          0.00000000	          0.00000000	          0.00000000	          0.00000000	          1.72292903	          0.00000000	          0.00000000	          0.00000000	          0.00000000	
          0.50000000	        130.21507931	        745.10851061	        -37.38466530	         -0.79209614	          0.00000000	          0.07688735	          0.00000000	          0.00000000	          0.00000000	          0.00000000	          0.00000000	          0.00000000	          0.00000000	          1.86184160	          0.00000000	          0.00000000	          0.00000000	          0.00000000	
          0.50400000	        136.39906710	        758.45626129	        -36.27052271	         -0.79132407	          0.00000000	          0.07651136	          0.00000000	          0.00000000	          0.00000000	          0.00000000	          0.00000000	          0.00000000	          0.00000000	          2.01130551	          0.00000000	          0.00000000	          0.00000000	          0.00000000	
          0.50800000	        143.14513933	        770.23838694	        -35.20738919	         -0.79064296	          0.00000000	          0.07616705	          0.00000000	          0.00000000	          0.00000000	          0.00000000	          0.00000000	          0.00000000	          0.00000000	          2.16148291	          0.00000000	          0.00000000	          0.00000000	          0.00000000	
          0.51200000	        150.36410521	        780.32525766	        -34.17627371	         -0.79002232	          0.00000000	          0.07586712	          0.00000000	          0.00000000	          0.00000000	          0.00000000	          0.00000000	          0.00000000	          0.00000000	          2.30628035	          0.00000000	          0.00000000	          0.00000000	          0.00000000	
          0.51600000	        157.91719143	        788.61285346	        -33.13468710	         -0.78944649	          0.00000000	          0.07560797	          0.00000000	          0.00000000	          0.00000000	          0.00000000	          0.00000000	          0.00000000	          0.00000000	          2.44212358	          0.00000000	          0.00000000	          0.00000000	          0.00000000	
          0.52000000	        165.65329178	        794.99929603	        -32.04262054	         -0.78890803	          0.00000000	          0.07538099	          0.00000000	          0.00000000	          0.00000000	          0.00000000	          0.00000000	          0.00000000	          0.00000000	          2.56628903	          0.00000000	          0.00000000	          0.00000000	          0.00000000	
          0.52400000	        173.43250502	        799.36123216	        -30.88434103	         -0.78840107	          0.00000000	          0.07517762	          0.00000000	          0.00000000	          0.00000000	          0.00000000	          0.00000000	          0.00000000	          0.00000000	          2.67535548	          0.00000000	          0.00000000	          0.00000000	          0.00000000	
          0.52800000	        181.13101082	        801.56339921	        -29.68026055	         -0.78791359	          0.00000000	          0.07499536	          0.00000000	          0.00000000	          0.00000000	          0.00000000	          0.00000000	          0.00000000	          0.00000000	          2.76421946	          0.00000000	          0.00000000	          0.00000000	          0.00000000	
          0.53200000	        188.63989335	        801.49282769	        -28.48515223	         -0.78742370	          0.00000000	          0.07483859	          0.00000000	          0.00000000	          0.00000000	          0.00000000	          0.00000000	          0.00000000	          0.00000000	          2.82592491	          0.00000000	          0.00000000	          0.00000000	          0.00000000	
          0.53600000	        195.86958669	        799.09053429	        -27.37438219	         -0.78691535	          0.00000000	          0.07471258	          0.00000000	          0.00000000	          0.00000000	          0.00000000	          0.00000000	          0.00000000	          0.00000000	          2.85229721	          0.00000000	          0.00000000	          0.00000000	          0.00000000	
          0.54000000	        202.75859191	        794.36356296	        -26.42553534	         -0.78638519	          0.00000000	          0.07461670	          0.00000000	          0.00000000	          0.00000000	          0.00000000	          0.00000000	          0.00000000	          0.00000000	          2.83512428	          0.00000000	          0.00000000	          0.00000000	          0.00000000	
          0.54400000	        209.27662666	        787.36635851	        -25.70089568	         -0.78584132	          0.00000000	          0.07454642	          0.00000000	          0.00000000	          0.00000000	          0.00000000	          0.00000000	          0.00000000	          0.00000000	          2.76751755	          0.00000000	          0.00000000	          0.00000000	          0.00000000	
          0.54800000	        215.41677219	        778.16154374	        -25.23164542	         -0.78529321	          0.00000000	          0.07449820	          0.00000000	          0.00000000	          0.00000000	          0.00000000	          0.00000000	          0.00000000	          0.00000000	          2.64513098	          0.00000000	          0.00000000	          0.00000000	          0.00000000	
          0.55200000	        221.18218655	        766.79064887	        -25.00393425	         -0.78474495	          0.00000000	          0.07447057	          0.00000000	          0.00000000	          0.00000000	          0.00000000	          0.00000000	          0.00000000	          0.00000000	          2.46701210	          0.00000000	          0.00000000	          0.00000000	          0.00000000	
          0.55600000	        226.57483949	        753.26619900	        -24.94933379	         -0.78420558	          0.00000000	          0.07446032	          0.00000000	          0.00000000	          0.00000000	          0.00000000	          0.00000000	          0.00000000	          0.00000000	          2.23593854	          0.00000000	          0.00000000	          0.00000000	          0.00000000	
          0.56000000	        231.58497973	        737.56560809	        -24.94548603	         -0.78369828	          0.00000000	          0.07446104	          0.00000000	          0.00000000	          0.00000000	          0.00000000	          0.00000000	          0.00000000	          0.00000000	          1.95818538	          0.00000000	          0.00000000	          0.00000000	          0.00000000	
          0.56400000	        236.17435672	        719.60890758	        -24.83084226	         -0.78325166	          0.00000000	          0.07446449	          0.38045886	         14.43393641	         -3.25304076	         -0.14473156	         -0.02500000	         -0.03298247	          0.00000000	          1.64280007	          0.00000000	          0.00000000	          0.02436832	          0.00000000	
          0.56800000	        240.25051369	        699.22792795	        -24.42824673	         -0.78288952	          0.00000000	          0.07445999	         -3.82008142	        147.30963521	         -6.72314935	         -0.14005731	         -0.02500000	         -0.03340550	          0.00000000	          1.30059814	          0.00000000	          0.00000000	         -0.12279194	          0.00000000	
          0.57200000	        243.63661928	        676.15309926	        -23.56760726	         -0.78262974	          0.00000000	          0.07443424	        -11.19145012	        268.43148680	         -9.64309487	         -0.13646560	         -0.02500000	         -0.03377589	          0.00000000	          0.94317516	          0.00000000	          0.00000000	         -0.27603051	          0.00000000	
          0.57600000	        246.04599468	        650.03065356	        -22.10557163	         -0.78248310	          0.00000000	          0.07437171	        -24.25509539	        368.66908329	        -11.55592080	         -0.13334410	         -0.02500000	         -0.03425253	          0.00000000	          0.58222782	          0.00000000	          0.00000000	         -0.43280052	          0.00000000	
          0.58000000	        247.07865607	        620.44900266	        -19.94791475	         -0.78245684	          0.00000000	          0.07425798	        -44.53895910	        445.40815263	        -11.73693163	         -0.13026168	         -0.02500000	         -0.03496190	          0.00000000	          0.22939363	          0.00000000	          0.00000000	         -0.58628880	          0.00000000	
          0.58400000	        246.25992036	        586.95406996	        -17.07138444	         -0.78255016	          0.00000000	          0.07408617	        -71.24671575	        502.57067387	         -9.43881857	         -0.12674406	         -0.02500000	         -0.03592325	          0.00000000	         -0.10331587	          0.00000000	          0.00000000	         -0.72448194	          0.00000000	
          0.58800000	        243.09863113	        549.10432096	        -13.52982158	         -0.78273809	          0.00000000	          0.07386765	       -100.96005379	        546.84934490	         -4.45537534	         -0.12251194	         -0.02500000	         -0.03697084	          0.00000000	         -0.40263231	          0.00000000	          0.00000000	         -0.82971304	          0.00000000	
